<?xml version="1.0" encoding="UTF-8"?>
<svg version="1.1" xmlns="http://www.w3.org/2000/svg" width="1771" height="491">
<path d="M0 0 C7.90184437 -0.1266579 15.80342754 -0.21429225 23.70605469 -0.2746582 C26.39515032 -0.29699963 29.08365794 -0.33180593 31.77246094 -0.37719727 C35.63493744 -0.43777116 39.49651062 -0.46619417 43.359375 -0.48828125 C45.16580475 -0.52699089 45.16580475 -0.52699089 47.00872803 -0.56648254 C55.32991902 -0.56928623 55.32991902 -0.56928623 58.60498047 2.21313477 C59.29551514 3.59263306 59.29551514 3.59263306 60 5 C60.75095947 6.22058105 60.75095947 6.22058105 61.51708984 7.46582031 C62.23179443 8.75891113 62.23179443 8.75891113 62.9609375 10.078125 C63.50766113 11.06135742 64.05438477 12.04458984 64.61767578 13.05761719 C65.19759277 14.11110352 65.77750977 15.16458984 66.375 16.25 C67.63011757 18.51046707 68.88532853 20.77088228 70.140625 23.03125 C70.78724459 24.1991439 71.43372876 25.36711278 72.08007812 26.53515625 C75.0797799 31.94865671 78.10125016 37.34990481 81.125 42.75 C81.99777588 44.30992676 81.99777588 44.30992676 82.88818359 45.90136719 C87.03862937 53.31013941 91.23923854 60.68889954 95.46582031 68.05444336 C99.31890983 74.77954697 103.10187748 81.54227615 106.875 88.3125 C111.52991706 96.66192824 116.28044757 104.9467458 121.125 113.1875 C126.08804505 121.63587969 130.87158021 130.16104814 135.53173828 138.77978516 C145.04451357 156.35712219 155.0655465 173.65873006 165 191 C173.88856031 177.10734018 182.22485993 162.88583529 190.62400818 148.69494629 C193.72908226 143.45105169 196.85622886 138.22079472 200 133 C203.93217198 126.4698235 207.8290061 119.91942486 211.70957947 113.35850525 C214.98043999 107.82977354 218.26519995 102.30942741 221.55653381 96.79286194 C223.39296117 93.71186892 225.22224296 90.62738193 227.02636719 87.52734375 C228.77226775 84.5291671 230.53964077 81.54478419 232.3125 78.5625 C232.8087085 77.69310791 233.30491699 76.82371582 233.81616211 75.92797852 C234.28546143 75.14865967 234.75476074 74.36934082 235.23828125 73.56640625 C235.63055908 72.89552979 236.02283691 72.22465332 236.42700195 71.53344727 C239.6954077 68.3472209 245.1896403 68.86904322 249.54296875 68.83544922 C250.60427002 68.82649628 251.66557129 68.81754333 252.7590332 68.80831909 C257.57103564 68.80322199 262.38247509 68.81997549 267.19433594 68.85742188 C269.73142579 68.86914053 272.2686615 68.86295472 274.80566406 68.83886719 C278.4760967 68.8055429 282.1421827 68.83025171 285.8125 68.8671875 C287.50959106 68.8350264 287.50959106 68.8350264 289.2409668 68.80221558 C296.91003162 68.96529891 296.91003162 68.96529891 299.96627808 71.86657715 C301.53618625 74.1778536 302.79281304 76.48267926 304 79 C304.92449951 80.56766113 304.92449951 80.56766113 305.86767578 82.16699219 C306.64860596 83.59253418 306.64860596 83.59253418 307.4453125 85.046875 C308.33875366 86.66843506 308.33875366 86.66843506 309.25024414 88.32275391 C309.86891357 89.45374512 310.48758301 90.58473633 311.125 91.75 C312.45744092 94.1704835 313.79304098 96.58921757 315.12890625 99.0078125 C315.4597673 99.60753876 315.79062836 100.20726501 316.1315155 100.82516479 C319.05729734 106.12153206 322.04712694 111.37927303 325.0625 116.625 C329.37819065 124.1419057 333.64361113 131.68530341 337.875 139.25 C338.45741455 140.2910791 339.0398291 141.3321582 339.63989258 142.40478516 C342.64687828 147.78318067 345.6490043 153.16426454 348.6484375 158.546875 C353.96284766 168.07458218 359.28601082 177.59320991 364.8125 187 C365.22725586 187.70640625 365.64201172 188.4128125 366.06933594 189.140625 C367.79481085 192.24713976 367.79481085 192.24713976 370 195 C382.36976333 196.64731854 395.0360957 196.67157749 407.50114632 196.91112614 C411.19100773 196.98366187 414.87448295 197.08722986 418.56103516 197.26196289 C433.95519881 198.63061627 433.95519881 198.63061627 448.20193481 194.6234436 C451.7152579 191.05805815 453.46598382 186.86641057 455.14013672 182.21157837 C456.52602603 178.64705492 458.57376109 175.54154059 460.60546875 172.31640625 C461.36503294 171.0429526 462.12022342 169.76688037 462.87109375 168.48828125 C465.3095278 164.35553622 467.75374014 160.22623619 470.19921875 156.09765625 C470.6107016 155.40261993 471.02218445 154.70758362 471.44613647 153.9914856 C475.10601099 147.81274821 478.79787553 141.6535107 482.5 135.5 C487.75256406 126.7673362 492.96354626 118.01089995 498.15722656 109.24316406 C505.2246211 97.31303936 512.36121273 85.42966301 519.57885742 73.58984375 C525.01548945 64.66183232 530.36200469 55.68216149 535.6875 46.6875 C541.43995559 36.97605369 547.20992517 27.27654704 553.0625 17.625 C553.6402417 16.66811279 554.2179834 15.71122559 554.81323242 14.7253418 C555.34021729 13.85949463 555.86720215 12.99364746 556.41015625 12.1015625 C556.86527588 11.35213379 557.32039551 10.60270508 557.78930664 9.83056641 C559 8 559 8 561 6 C563.49354642 5.8115541 565.87375429 5.74471038 568.3671875 5.76953125 C569.11013565 5.76926437 569.8530838 5.7689975 570.61854553 5.76872253 C573.03757343 5.77157028 575.4560762 5.79033018 577.875 5.8125 C578.6917923 5.81854248 579.50858459 5.82458496 580.35012817 5.83081055 C584.42484034 5.86174387 588.49923669 5.90343868 592.57373047 5.95556641 C596.27016967 5.99977912 599.96353959 5.98377752 603.66015625 5.94921875 C605.41929593 5.96329806 607.17841866 5.97991289 608.9375 6 C609.70884277 5.98042236 610.48018555 5.96084473 611.27490234 5.94067383 C613.40234375 6 613.40234375 6 617 7 C619.234851 9.37504316 620.54834208 12.10023851 622 15 C622.9400458 16.64829491 623.88699974 18.29266399 624.83984375 19.93359375 C625.87432149 21.76714406 626.90677267 23.60183879 627.9375 25.4375 C628.49961182 26.43467041 629.06172363 27.43184082 629.64086914 28.45922852 C632.59567619 33.70563533 635.53724727 38.95928922 638.46875 44.21875 C644.25809775 54.6005503 650.1016517 64.93933834 656.125 75.1875 C661.0887838 83.63734188 665.87343402 92.16375975 670.53393555 100.78417969 C675.68222877 110.29790491 681.01590325 119.703522 686.35888672 129.10888672 C689.07962386 133.90194968 691.78923121 138.70129479 694.5 143.5 C695.58199373 145.41408371 696.664025 147.3281462 697.74609375 149.2421875 C699.92713419 153.10080008 702.1066755 156.96025424 704.28515625 160.8203125 C709.75727778 170.51438875 715.23998747 180.20240158 720.75 189.875 C721.26377197 190.77943848 721.77754395 191.68387695 722.30688477 192.61572266 C722.77795654 193.44120605 723.24902832 194.26668945 723.734375 195.1171875 C724.14913086 195.84534668 724.56388672 196.57350586 724.99121094 197.32373047 C725.89097091 198.97138696 725.89097091 198.97138696 727 200 C729.68675467 200.15158657 732.3496575 200.23660286 735.0390625 200.28125 C735.90902359 200.29934219 736.77898468 200.31743439 737.67530823 200.33607483 C740.65845979 200.39615628 743.64169108 200.44835445 746.625 200.5 C748.77905415 200.54020758 750.93310684 200.58049328 753.0871582 200.62084961 C760.72457565 200.75980072 768.36223474 200.88205948 776 201 C777.10243923 201.01705868 777.10243923 201.01705868 778.22714996 201.03446198 C799.01623735 201.35488423 819.80559584 201.63039774 840.59605408 201.84490967 C848.97537515 201.9316398 857.35423686 202.02971285 865.73308468 202.15428066 C871.43866979 202.23771814 877.14425038 202.29513439 882.85025024 202.34103394 C885.12897952 202.36338919 887.40764332 202.39434756 889.68612671 202.43460083 C892.78715264 202.48791468 895.8868637 202.50968531 898.98828125 202.5234375 C899.86686798 202.54606155 900.74545471 202.56868561 901.65066528 202.59199524 C908.32892044 202.56938832 913.37293188 200.57227226 919 197 C921.28560125 194.8033169 921.28560125 194.8033169 922.5625 192.375 C923.01753906 191.61960937 923.47257812 190.86421875 923.94140625 190.0859375 C926.76224 184.52754184 926.9395773 178.54322525 925.3515625 172.5546875 C922.88257416 166.3294605 919.22128613 162.05480422 913.16077042 159.10471439 C906.0890695 156.50422975 899.19336623 156.53460384 891.72558594 156.50756836 C890.30020729 156.49193476 888.87484245 156.47499655 887.44949341 156.4568634 C884.39344476 156.42070232 881.33750006 156.3935615 878.28130341 156.37354851 C873.42710511 156.34158002 868.57327282 156.2884435 863.71929932 156.2325592 C855.14593432 156.13650214 846.57247697 156.05797083 837.99890137 155.98345947 C825.14135307 155.87163619 812.28394883 155.74664207 799.42670274 155.60423189 C795.40257658 155.5602129 791.3784964 155.52027687 787.35424042 155.49015617 C724.92954608 155.02259909 724.92954608 155.02259909 701.65625 132.7578125 C685.93338871 116.33496082 681.45059997 97.41549598 681.73046875 75.328125 C682.29745554 56.39132487 690.9783428 40.29434127 704.48730469 27.38671875 C719.63482037 13.50068113 737.10997978 8.49879313 757.26293945 8.64111328 C758.82122261 8.6412272 760.37950619 8.64019493 761.93778801 8.63814926 C766.29071151 8.63717978 770.64332764 8.65707478 774.99617553 8.68125296 C777.84437516 8.69553104 780.69253907 8.70414963 783.54076576 8.71100235 C846.56897318 8.86582817 909.59725342 9.80485064 972.61938573 10.63377598 C986.91042034 10.82157713 1001.20156055 10.99938556 1015.49277493 11.17291604 C1030.36788101 11.3536317 1045.24288886 11.54106299 1060.11781961 11.73569119 C1068.39162902 11.84382888 1076.66545054 11.94939861 1084.93938255 12.0477562 C1091.91973332 12.13080086 1098.89996794 12.22019229 1105.88013258 12.31767641 C1109.42477154 12.36701008 1112.96938405 12.4135512 1116.51415825 12.4520874 C1144.81156622 12.76379757 1168.78122557 13.88609595 1190 35 C1190.77214844 35.73734375 1191.54429688 36.4746875 1192.33984375 37.234375 C1197.00972653 41.99206754 1200.36277448 46.97599996 1203.375 52.875 C1203.69678223 53.49834229 1204.01856445 54.12168457 1204.35009766 54.76391602 C1209.33941001 65.11588166 1210.50605636 75.56337729 1210.4375 86.9375 C1210.4674707 88.69610352 1210.4674707 88.69610352 1210.49804688 90.49023438 C1210.48749002 109.60870051 1201.78248397 125.74707606 1188.76171875 139.3359375 C1175.64626641 151.91475104 1158.91262164 159.11799932 1140.68237305 159.12939453 C1139.97372604 159.13114685 1139.26507904 159.13289917 1138.53495789 159.13470459 C1136.19385305 159.13909756 1133.85282437 159.13618558 1131.51171875 159.1328125 C1129.85057054 159.13348826 1128.18942242 159.13446054 1126.52827454 159.13571167 C1123.03047757 159.13718687 1119.5327061 159.13504714 1116.03491211 159.13037109 C1111.65854201 159.12479217 1107.28223434 159.12796565 1102.90586662 159.13382339 C1080.91830351 159.1585764 1058.97260191 158.82791275 1037 158 C1037.00888245 158.56296783 1037.01776489 159.12593567 1037.0269165 159.70596313 C1037.1155807 165.57844871 1037.1758131 171.45074336 1037.21972656 177.32373047 C1037.23981107 179.51391324 1037.26708417 181.70404259 1037.30175781 183.89404297 C1037.35041409 187.04668376 1037.37300078 190.19861404 1037.390625 193.3515625 C1037.41127014 194.32678864 1037.43191528 195.30201477 1037.45318604 196.30679321 C1037.45557935 203.59867403 1035.66455426 207.04839166 1030.74511719 212.49780273 C1029.5332373 213.70351929 1029.5332373 213.70351929 1028.296875 214.93359375 C1026.94916016 216.2784082 1026.94916016 216.2784082 1025.57421875 217.65039062 C1024.64222656 218.57013672 1023.71023438 219.48988281 1022.75 220.4375 C1021.83347656 221.35337891 1020.91695312 222.26925781 1019.97265625 223.21289062 C1015.40860106 227.74764731 1010.78019896 232.12417009 1005.8984375 236.31323242 C1001.76025781 239.99001784 997.96721906 244.03614356 994.1171875 248.00976562 C993.48296875 248.65494141 992.84875 249.30011719 992.1953125 249.96484375 C991.34477295 250.84064087 991.34477295 250.84064087 990.47705078 251.73413086 C989 253 989 253 987 253 C986.97632978 243.86023548 986.95881752 234.72048225 986.94818783 225.58069324 C986.94307393 221.33202306 986.93619984 217.08337452 986.92456055 212.8347168 C986.89619152 202.0738566 986.91223314 191.31408597 986.98433685 180.55341339 C987.00035774 177.94168107 987.01070132 175.32996194 987.02081299 172.71820068 C987.04090233 168.40561332 987.08937684 164.09412966 987.15786934 159.78204918 C987.18002147 158.15857848 987.19383632 156.5349701 987.19883537 154.91135597 C987.20761385 152.66731791 987.24746387 150.42587518 987.29516602 148.18237305 C987.31813499 146.27659737 987.31813499 146.27659737 987.34156799 144.33232117 C988.17343479 140.12224738 989.77234898 138.73676551 993 136 C993.99588326 134.9915467 994.99036122 133.98170122 995.98266602 132.96972656 C998.87906535 130.02013635 1001.78442039 127.07955326 1004.69311523 124.14208984 C1005.94383938 122.87617472 1007.1918727 121.60759563 1008.43725586 120.33642578 C1010.2441143 118.49323545 1012.06044219 116.65985724 1013.87890625 114.828125 C1014.43316788 114.25837952 1014.9874295 113.68863403 1015.55848694 113.10162354 C1019.80518213 108.85309237 1021.9830839 108.04261352 1027.89485168 107.91770935 C1029.50263199 107.93253914 1031.11036515 107.95314917 1032.71801758 107.97827148 C1033.59849258 107.98787903 1034.47896759 107.99748657 1035.38612366 108.00738525 C1038.3056728 108.04042137 1041.22507399 108.08080099 1044.14453125 108.12109375 C1046.19121225 108.14543679 1048.23789927 108.16927814 1050.28459167 108.19264221 C1055.69274016 108.25555054 1061.10079479 108.32448033 1066.5088501 108.39489746 C1075.09531466 108.50562505 1083.68189817 108.60678833 1092.26846886 108.70887947 C1095.2340005 108.74490293 1098.19949583 108.78316079 1101.16499329 108.82188416 C1105.82214509 108.8820961 1110.47930413 108.9261878 1115.13666153 108.96686935 C1118.16166173 109.00187053 1121.18569415 109.06122572 1124.21029663 109.12112427 C1126.25827292 109.14909501 1128.30625667 109.17652552 1130.35424805 109.20336914 C1131.28837178 109.22754882 1132.22249552 109.2517285 1133.18492603 109.27664089 C1140.49660422 109.3449836 1147.03887792 108.43470038 1152.8125 103.6875 C1158.14984159 97.13019462 1160.45461489 92.40921413 1160.33203125 83.984375 C1159.66202212 77.96217526 1157.38702025 73.05676701 1152.76953125 69.078125 C1147.6760837 65.58832407 1143.67251244 63.90909942 1137.4644804 63.70049381 C1136.32801958 63.66103702 1135.19155877 63.62158024 1134.02065974 63.58092779 C1132.78300386 63.54351132 1131.54534798 63.50609486 1130.27018738 63.46754456 C1128.97446908 63.42596869 1127.67875079 63.38439283 1126.3437683 63.34155709 C1112.50565816 62.91101389 1098.66394852 62.71409977 1084.82055056 62.54576242 C1081.08929607 62.4996771 1077.35809049 62.44988139 1073.62687683 62.40061951 C1066.35562799 62.30519623 1059.08434087 62.21310383 1051.81303308 62.12229555 C1045.878786 62.04812175 1039.94455618 61.97268291 1034.01033592 61.89639473 C1033.15723785 61.88542877 1032.30413977 61.87446282 1031.42519024 61.86316456 C1029.69046325 61.84086081 1027.95573631 61.81855433 1026.2210094 61.79624517 C1010.02984 61.58816617 993.83862399 61.38392407 977.64738878 61.18103994 C963.8762958 61.00839179 950.10524818 60.83244972 936.33422852 60.65405273 C920.22329475 60.44534464 904.11233551 60.23879428 888.00133294 60.03546149 C886.26748698 60.01357347 884.53364105 59.99168282 882.79979515 59.96978951 C881.52128459 59.95364732 881.52128459 59.95364732 880.21694553 59.93717904 C874.32849162 59.86269389 868.44005766 59.78674937 862.55163002 59.71021843 C843.71095783 59.46593288 824.87025163 59.23848869 806.02884528 59.05839799 C801.40663518 59.01419862 796.78447879 58.9659647 792.16231918 58.91670609 C786.18308401 58.85504499 780.20396125 58.81016018 774.22448766 58.77971947 C772.08670462 58.76679029 769.94894475 58.74885538 767.81125128 58.72540081 C764.93007522 58.6949593 762.04945244 58.68359456 759.1681366 58.67750549 C758.34643632 58.66469563 757.52473604 58.65188577 756.67813575 58.63868773 C750.01172111 58.65987156 744.48696713 59.90868673 739.25 64.3125 C733.73457833 70.90036477 731.6070309 75.63513242 731.73046875 84.15234375 C732.42423196 91.48210292 736.36225215 95.81601737 741.70703125 100.5546875 C748.36901758 104.75389524 755.80515193 104.32954955 763.41992188 104.39477539 C764.6586203 104.41296829 765.89731873 104.43116119 767.17355347 104.4499054 C769.86189626 104.48799903 772.55001495 104.52264604 775.2384491 104.5512867 C779.52389616 104.59694462 783.80910104 104.65590295 788.09436035 104.71641541 C794.91010418 104.81106046 801.72592844 104.89652908 808.54183817 104.97826141 C820.64657393 105.12371893 832.75110105 105.28525468 844.85559893 105.44918627 C849.07887755 105.50603621 853.30218061 105.55914361 857.52554655 105.60906285 C870.97737146 105.76923829 884.42765711 105.98329534 897.87502003 106.36983573 C899.84746526 106.42566065 901.82007642 106.4755242 903.79268646 106.52518559 C926.15241512 107.22104275 943.80726217 115.47242111 959.30859375 131.3671875 C963.41325325 136.11995113 966.44352119 141.32075711 969.3125 146.875 C969.63839111 147.49850342 969.96428223 148.12200684 970.30004883 148.7644043 C975.1733663 158.71266753 976.54027023 168.89816028 976.4375 179.875 C976.42614014 181.58453857 976.42614014 181.58453857 976.41455078 183.32861328 C976.24806862 191.84350758 975.35788715 199.09540851 972 207 C971.56429687 208.03898438 971.12859375 209.07796875 970.6796875 210.1484375 C967.40092407 217.2613833 963.19213103 223.16380692 958 229 C957.40703125 229.68707031 956.8140625 230.37414062 956.203125 231.08203125 C943.7189624 244.60654073 926.18464245 251.84138454 908 253 C904.75937409 253.09037658 901.52170698 253.0834854 898.2800293 253.06811523 C897.29547351 253.06566268 896.31091772 253.06321012 895.29652691 253.06068325 C880.69151995 253.00671229 866.08715126 252.81113976 851.48329759 252.62907338 C848.92592302 252.59726938 846.36854391 252.56585936 843.81116295 252.53457451 C834.8310395 252.42468867 825.85093654 252.31326895 816.87084961 252.20043945 C808.5929536 252.09647557 800.3150201 251.99601116 792.03706151 251.89716727 C784.84977787 251.81117941 777.66252884 251.7226076 770.47530001 251.63215441 C766.2180807 251.57862062 761.96085576 251.52603261 757.7035923 251.4761219 C748.54073301 251.36798571 739.37861317 251.24033722 730.21661758 251.07381058 C727.40022705 251.02284699 724.58388215 250.97986712 721.76726913 250.94327927 C717.82953371 250.89086012 713.89289521 250.80566967 709.95581055 250.71655273 C708.21398483 250.69844465 708.21398483 250.69844465 706.43697071 250.67997074 C705.37706771 250.6504655 704.31716471 250.62096025 703.22514343 250.59056091 C702.30667476 250.57301978 701.38820608 250.55547865 700.44190502 250.53740597 C697.25134646 249.83523893 696.06851867 248.47475897 694 246 C692.86629475 244.20838797 691.79893614 242.37381746 690.78515625 240.51171875 C690.18815918 239.4247168 689.59116211 238.33771484 688.97607422 237.21777344 C688.66442322 236.64281128 688.35277222 236.06784912 688.03167725 235.47546387 C686.709379 233.03605303 685.37204326 230.60499408 684.03582764 228.17318726 C683.35114161 226.92658043 682.66726732 225.67952743 681.98419189 224.43203735 C678.83139611 218.67611021 675.61327471 212.95825483 672.375 207.25 C671.84648438 206.31679932 671.31796875 205.38359863 670.7734375 204.42211914 C669.71213 202.54845081 668.65044648 200.67499541 667.58837891 198.80175781 C664.91024871 194.07777654 662.23576493 189.3517359 659.5625 184.625 C659.02939209 183.68253418 658.49628418 182.74006836 657.94702148 181.76904297 C653.92328108 174.64914213 649.92745248 167.51387752 645.9375 160.375 C641.18393512 151.87095798 636.38339577 143.39600253 631.53442383 134.94604492 C627.68131318 128.22074258 623.89830278 121.45783256 620.125 114.6875 C614.86245452 105.25088517 609.46901577 95.89904292 604 86.58081055 C598.85561615 77.79909479 593.89072625 68.92501197 589 60 C588.34 60 587.68 60 587 60 C585.36396101 62.32695964 585.36396101 62.32695964 583.68359375 65.359375 C583.3556633 65.92636612 583.02773285 66.49335724 582.68986511 67.07752991 C581.97599955 68.31311418 581.26541479 69.55059826 580.55767822 70.78970337 C578.64408408 74.13846706 576.70547252 77.47271608 574.76953125 80.80859375 C574.3714325 81.49592087 573.97333374 82.18324799 573.56317139 82.8914032 C569.67625487 89.58918413 565.66406734 96.20545724 561.625 102.8125 C555.50787525 112.83104755 549.47777694 122.89770832 543.5 133 C537.52219986 143.10233091 531.48969931 153.16744775 525.375 163.1875 C519.650734 172.56849302 514.03562805 182.00651163 508.5 191.5 C492.56948911 218.81900189 492.56948911 218.81900189 484.87646484 230.77294922 C482.88640899 233.97844475 482.88640899 233.97844475 481.65869141 237.66845703 C480.03073895 241.56779836 478.61567219 244.71718276 475 247 C466.51006249 249.34045109 457.18973688 248.23788162 448.5 247.875 C445.82610394 247.8086213 443.15264726 247.74740068 440.47851562 247.6940918 C436.22044285 247.60413631 431.96316191 247.5046177 427.70617676 247.37217712 C417.34665418 247.05078455 406.99753889 246.92543861 396.63319397 246.9076004 C391.67993147 246.89721939 386.7267271 246.87068415 381.77352142 246.8454361 C377.7395251 246.82535527 373.70567936 246.81067984 369.67163086 246.80828857 C365.85718703 246.80425583 362.04369312 246.77506568 358.22955322 246.72744942 C356.82161032 246.71398956 355.41355446 246.70917283 354.0055542 246.71360588 C343.06334403 246.74139252 343.06334403 246.74139252 338.8125 243.77758789 C338.214375 242.86098389 337.61625 241.94437988 337 241 C336.45666016 240.17580566 335.91332031 239.35161133 335.35351562 238.50244141 C334.63711914 237.19025635 334.63711914 237.19025635 333.90625 235.8515625 C333.08338501 234.36148682 333.08338501 234.36148682 332.24389648 232.84130859 C331.66841064 231.77992676 331.0929248 230.71854492 330.5 229.625 C329.25182265 227.35908817 328.00311315 225.0934694 326.75390625 222.828125 C325.81248779 221.11206055 325.81248779 221.11206055 324.85205078 219.36132812 C322.08711088 214.34317725 319.26444715 209.35840042 316.4375 204.375 C315.36314171 202.47664146 314.28892299 200.57820393 313.21484375 198.6796875 C312.68487793 197.74350586 312.15491211 196.80732422 311.60888672 195.84277344 C308.90377729 191.06306263 306.2020709 186.28142898 303.5 181.5 C302.41668275 179.58332424 301.33334943 177.66665757 300.25 175.75 C298.08333333 171.91666667 295.91666667 168.08333333 293.75 164.25 C293.21286377 163.2997998 292.67572754 162.34959961 292.12231445 161.37060547 C291.04752467 159.46881792 289.97313794 157.56680252 288.89916992 155.66455078 C286.06351648 150.64321584 283.21936798 145.62693239 280.36328125 140.6171875 C279.76902344 139.57240234 279.17476562 138.52761719 278.5625 137.45117188 C277.42314713 135.44840316 276.28134447 133.44702548 275.13671875 131.44726562 C274.36714844 130.0927832 274.36714844 130.0927832 273.58203125 128.7109375 C272.90491089 127.52443604 272.90491089 127.52443604 272.21411133 126.31396484 C270.96226212 123.92807569 269.95703361 121.51698445 269 119 C266.00555691 121.64096459 264.23270931 124.74320436 262.21875 128.16796875 C261.67031937 129.09604088 261.67031937 129.09604088 261.11080933 130.04286194 C259.90307815 132.08867173 258.70165141 134.13811428 257.5 136.1875 C256.64974542 137.62952323 255.79898852 139.07125038 254.94775391 140.51269531 C253.17698826 143.51230751 251.40839931 146.51318573 249.64160156 149.51513672 C245.56740652 156.43544961 241.47315225 163.34385454 237.375 170.25 C236.78552582 171.24373123 236.78552582 171.24373123 236.18414307 172.25753784 C228.59732999 185.04272283 220.89740017 197.75645983 213.15869141 210.45019531 C210.83910241 214.26013924 208.53471681 218.07920317 206.23046875 221.8984375 C205.05491874 223.84432512 203.8791062 225.79005382 202.70318604 227.73571777 C201.9485876 228.98553531 201.19495042 230.23593377 200.44232178 231.48693848 C199.40295576 233.21421719 198.35977237 234.93919712 197.31640625 236.6640625 C196.72287354 237.64842285 196.12934082 238.6327832 195.51782227 239.64697266 C194 242 194 242 192 244 C189.98432922 244.24723816 189.98432922 244.24723816 187.4777832 244.24291992 C186.53953201 244.24599655 185.60128082 244.24907318 184.63459778 244.25224304 C183.61693832 244.24505753 182.59927887 244.23787201 181.55078125 244.23046875 C179.98181343 244.22978142 179.98181343 244.22978142 178.38114929 244.2290802 C176.16269806 244.22605414 173.94424902 244.21815737 171.72583008 244.20581055 C168.34383533 244.1876681 164.96211624 244.1853001 161.58007812 244.18554688 C159.42447682 244.18062713 157.26887736 244.17479683 155.11328125 244.16796875 C154.10574295 244.16685593 153.09820465 244.1657431 152.06013489 244.16459656 C138.08233437 244.07112152 138.08233437 244.07112152 134.76123047 240.78442383 C133.02590012 238.04094688 131.37255443 235.30062492 129.8203125 232.44921875 C129.22839111 231.37051514 128.63646973 230.29181152 128.02661133 229.18041992 C127.39907959 228.02775635 126.77154785 226.87509277 126.125 225.6875 C124.78115901 223.23747346 123.43255296 220.79009953 122.08203125 218.34375 C121.74090805 217.72553879 121.39978485 217.10732758 121.04832458 216.47038269 C117.73470629 210.48482561 114.28641587 204.58128866 110.8125 198.6875 C105.88098928 190.30860619 101.15060489 181.8460113 96.53833008 173.2878418 C92.83068044 166.44111013 88.94982821 159.70953351 85 153 C80.00609776 144.51690842 75.20875355 135.95421114 70.5390625 127.2890625 C66.83104832 120.4419887 62.95007005 113.70994432 59 107 C54.00609776 98.51690842 49.20875355 89.95421114 44.5390625 81.2890625 C40.83104472 74.44198204 36.94990751 67.71004487 33 61 C28.00040921 52.50294988 23.17173182 43.9358877 18.49291992 35.25830078 C14.15902513 27.2338635 9.66178866 19.30653924 5.09936523 11.40991211 C4.57802002 10.49862549 4.0566748 9.58733887 3.51953125 8.6484375 C3.05651611 7.84583496 2.59350098 7.04323242 2.11645508 6.21630859 C1.06034356 4.11978982 0.52534117 2.27304382 0 0 Z " fill="#000000" transform="translate(561,162)"/>
<path d="M0 0 C3.73294358 0.90259529 6.21195425 2.06086795 9.44677734 4.09912109 C10.50977051 4.76258545 11.57276367 5.4260498 12.66796875 6.10961914 C13.49521454 6.6376564 13.49521454 6.6376564 14.33917236 7.17636108 C16.07382112 8.27938658 17.8214321 9.35879892 19.57324219 10.43432617 C24.6607446 13.5782513 29.64144012 16.75181661 34.31396484 20.50146484 C41.57362134 26.20641386 46.38804337 28.55137627 55.80957031 27.60229492 C59.81268907 27.01736573 63.76173251 26.24636009 67.7277832 25.45288086 C77.99838774 23.48388722 77.99838774 23.48388722 82.67333984 23.88818359 C85.41150882 26.05137215 86.34003294 27.07947595 87.98583984 29.95068359 C88.42130127 30.61970703 88.8567627 31.28873047 89.30541992 31.97802734 C90.26948321 33.46084132 91.21588891 34.95524292 92.14697266 36.45898438 C94.32391527 39.92356834 96.6517109 43.27784797 98.97338867 46.64648438 C100.89874424 49.44324327 102.80502977 52.2522711 104.70849609 55.06396484 C108.69280939 60.9332446 112.73889514 66.75820397 116.79833984 72.57568359 C122.30194469 80.46291776 127.76854169 88.37319544 133.16210938 96.33618164 C134.13367354 97.7647117 135.12951116 99.17701022 136.14794922 100.57250977 C137.67333984 102.88818359 137.67333984 102.88818359 138.96435547 105.85424805 C140.85779206 109.55865551 142.24860507 111.4730994 145.67333984 113.88818359 C153.62022288 115.76294483 162.08840878 114.915274 170.17333984 114.57568359 C172.44926385 114.52046944 174.72531583 114.47028585 177.00146484 114.42529297 C182.56155997 114.30444719 188.11685656 114.12075849 193.67333984 113.88818359 C194.33333984 115.53818359 194.99333984 117.18818359 195.67333984 118.88818359 C192.11646432 124.06182072 187.39294308 127.27895092 182.36083984 130.88818359 C181.11657227 131.79310547 181.11657227 131.79310547 179.84716797 132.71630859 C178.2125535 133.90324254 176.57183491 135.0818204 174.92480469 136.25146484 C173.55107035 137.25011102 172.19992589 138.28219708 170.89453125 139.36865234 C162.69037411 146.03559922 149.98726587 145.57240934 139.88037109 146.83349609 C138.48034645 147.00987669 137.08033759 147.18638265 135.68034363 147.36300659 C132.76689099 147.72978188 129.85315391 148.09418877 126.93920898 148.45703125 C123.22347796 148.92003099 119.50871392 149.39034883 115.79414845 149.86259651 C112.91109084 150.22807091 110.0274744 150.58897463 107.14368248 150.94860458 C105.77409076 151.12007742 104.40469105 151.29309185 103.03550148 151.46774673 C84.41785878 153.83720979 84.41785878 153.83720979 80.51513672 151.71411133 C79.97953125 151.17214111 79.44392578 150.6301709 78.89208984 150.07177734 C78.28204102 149.4759082 77.67199219 148.88003906 77.04345703 148.26611328 C76.42631836 147.62577148 75.80917969 146.98542969 75.17333984 146.32568359 C73.85633156 145.02679631 72.53863125 143.72861031 71.22021484 142.43115234 C70.60210937 141.81030762 69.98400391 141.18946289 69.34716797 140.54980469 C67.44222746 138.65875669 65.46496143 136.8803111 63.42333984 135.13818359 C60.29016972 132.44093279 57.22720559 129.67504468 54.17333984 126.88818359 C50.38399858 123.43242946 46.56250287 120.0229547 42.69287109 116.65771484 C37.77597429 112.34948611 32.94694952 107.94132203 28.09521484 103.56005859 C24.33033135 100.16473421 20.56140434 96.77760017 16.73583984 93.45068359 C13.50774472 90.63995835 10.33595542 87.77238459 7.17333984 84.88818359 C3.92346762 81.92599024 0.66586403 78.97626888 -2.63916016 76.07568359 C-3.27080078 75.51623047 -3.90244141 74.95677734 -4.55322266 74.38037109 C-6.50118135 72.69193001 -6.50118135 72.69193001 -9.51416016 70.70068359 C-13.78756793 66.42727582 -15.2690422 61.49827015 -17.32666016 55.88818359 C-17.95840509 54.2765756 -18.59268526 52.66595996 -19.22900391 51.05615234 C-19.8879396 49.35486468 -20.54549246 47.65304076 -21.20166016 45.95068359 C-21.52448975 45.13390137 -21.84731934 44.31711914 -22.17993164 43.47558594 C-22.61994507 42.30503662 -22.61994507 42.30503662 -23.06884766 41.11083984 C-23.33552246 40.41740479 -23.60219727 39.72396973 -23.87695312 39.00952148 C-25.00511352 33.68781372 -22.25682236 29.59045281 -19.61572266 25.16162109 C-19.24691986 24.53212555 -18.87811707 23.90263 -18.49813843 23.25405884 C-17.71981051 21.92922656 -16.93796864 20.60645316 -16.15283203 19.28564453 C-14.95434717 17.26770783 -13.76864588 15.24266974 -12.58447266 13.21630859 C-11.82480273 11.92680588 -11.06441026 10.63772851 -10.30322266 9.34912109 C-9.94998932 8.74595062 -9.59675598 8.14278015 -9.2328186 7.52133179 C-4.64863292 -0.15625083 -4.64863292 -0.15625083 0 0 Z M-0.32666016 11.88818359 C-0.32666016 12.87818359 -0.32666016 13.86818359 -0.32666016 14.88818359 C0.25100098 15.00718018 0.82866211 15.12617676 1.42382812 15.2487793 C3.80122151 15.92453285 5.55240643 16.84378804 7.66552734 18.11865234 C8.4424292 18.5856958 9.21933105 19.05273926 10.01977539 19.53393555 C10.85420166 20.0427124 11.68862793 20.55148926 12.54833984 21.07568359 C13.41950439 21.59799561 14.29066895 22.12030762 15.18823242 22.65844727 C20.06317959 25.60352023 24.84665186 28.64747392 29.56787109 31.83349609 C30.53547363 32.47778564 31.50307617 33.1220752 32.5 33.78588867 C34.3716643 35.03861637 36.23018772 36.31126159 38.07324219 37.60571289 C42.28019586 40.40759594 45.31033412 42.37390833 50.47021484 41.87255859 C51.88071795 41.58783987 53.2841527 41.26334069 54.67333984 40.88818359 C55.68525391 40.63939453 56.69716797 40.39060547 57.73974609 40.13427734 C58.56345703 39.86744141 59.38716797 39.60060547 60.23583984 39.32568359 C61.08275391 39.05626953 61.92966797 38.78685547 62.80224609 38.50927734 C63.41970703 38.30431641 64.03716797 38.09935547 64.67333984 37.88818359 C61.92388388 36.8379048 60.68915272 36.88358858 57.81005859 37.72021484 C51.09179472 39.62993651 46.59721472 39.69632518 40.31005859 36.36474609 C35.30556731 33.40469933 30.47949214 30.18232087 25.67480469 26.91015625 C20.82172706 23.64082252 15.84023567 20.58503463 10.86083984 17.51318359 C9.9654248 16.94849365 9.07000977 16.38380371 8.14746094 15.80200195 C7.32455566 15.28645752 6.50165039 14.77091309 5.65380859 14.23974609 C4.93088623 13.78422363 4.20796387 13.32870117 3.46313477 12.859375 C1.71974628 11.72920501 1.71974628 11.72920501 -0.32666016 11.88818359 Z M-0.32666016 18.88818359 C-0.32666016 19.87818359 -0.32666016 20.86818359 -0.32666016 21.88818359 C1.38070313 22.70802734 1.38070313 22.70802734 3.12255859 23.54443359 C7.77285576 25.87213448 12.11378856 28.58030906 16.48583984 31.38818359 C17.30044678 31.9013916 18.11505371 32.41459961 18.9543457 32.94335938 C23.29229251 35.68342162 27.56676478 38.48702853 31.78271484 41.41162109 C33.02831177 42.25370117 33.02831177 42.25370117 34.29907227 43.11279297 C35.88373541 44.18606447 37.45287283 45.28275257 39.00268555 46.40576172 C43.27365311 49.26095199 45.84017846 50.27493268 50.97412109 49.27880859 C52.54974451 48.84763547 54.11734065 48.38554255 55.67333984 47.88818359 C57.04815818 47.51251814 58.42313725 47.13743996 59.79833984 46.76318359 C60.74708984 46.47443359 61.69583984 46.18568359 62.67333984 45.88818359 C62.67333984 45.55818359 62.67333984 45.22818359 62.67333984 44.88818359 C61.62919922 45.11119141 60.58505859 45.33419922 59.50927734 45.56396484 C45.40338407 47.84960434 36.87921554 42.48813936 25.42480469 34.73974609 C21.85486637 32.33740251 18.21436043 30.0578051 14.56567383 27.77758789 C11.53557527 25.87947844 8.52730783 23.948285 5.52246094 22.01049805 C3.61897461 20.8551869 1.6775318 19.85644185 -0.32666016 18.88818359 Z M47.67333984 109.88818359 C48.00333984 110.54818359 48.33333984 111.20818359 48.67333984 111.88818359 C49.33333984 111.55818359 49.99333984 111.22818359 50.67333984 110.88818359 C49.68333984 110.55818359 48.69333984 110.22818359 47.67333984 109.88818359 Z M50.67333984 111.88818359 C54.73041196 117.34424609 59.64982536 121.30060226 64.95605469 125.51220703 C66.86216508 127.03948002 68.7470765 128.59068339 70.63037109 130.14599609 C71.3196167 130.71310303 72.0088623 131.28020996 72.71899414 131.86450195 C74.0649828 132.97217303 75.40902866 134.08221091 76.75073242 135.19506836 C78.00627509 136.22259037 79.27493827 137.23435438 80.55807495 138.22720337 C81.91101087 139.28957613 83.23545744 140.38995329 84.51875305 141.53547668 C90.39584654 146.26246425 94.89749346 146.33752894 102.24562073 145.55200195 C103.58753057 145.37328001 104.92931996 145.19365164 106.27099609 145.01318359 C107.67353152 144.84958409 109.07641096 144.68891011 110.479599 144.53100586 C114.15496706 144.1088438 117.82382681 143.64456516 121.49298096 143.17181396 C124.47599199 142.79458447 127.4621127 142.44717154 130.4489069 142.10137939 C151.11519816 140.85349171 151.11519816 140.85349171 169.48583984 132.95068359 C170.39978516 132.26103516 171.31373047 131.57138672 172.25537109 130.86083984 C174.19139525 129.28136941 175.96160043 127.70228616 177.67333984 125.88818359 C172.66739937 127.47339808 167.92711889 129.21203193 163.1484375 131.38891602 C156.7390391 134.07153951 150.70276111 135.0352105 143.82177734 135.68896484 C142.0516478 135.87811714 142.0516478 135.87811714 140.24575806 136.0710907 C137.77101038 136.33224708 135.29533372 136.58473556 132.81884766 136.82885742 C129.04944196 137.20057491 125.28338734 137.5976262 121.51708984 137.99951172 C119.09797186 138.25163372 116.67870514 138.50233341 114.25927734 138.75146484 C113.14547699 138.86702225 112.03167664 138.98257965 110.88412476 139.10163879 C91.59304385 140.99114691 91.59304385 140.99114691 83.67333984 134.70068359 C82.21115693 133.60425385 80.74891521 132.50790253 79.28662109 131.41162109 C78.53719238 130.83637695 77.78776367 130.26113281 77.015625 129.66845703 C73.02564134 126.63583656 68.93562217 123.74270636 64.86083984 120.82568359 C63.37417095 119.75283789 61.8884293 118.67870558 60.40380859 117.60302734 C59.77885498 117.15048584 59.15390137 116.69794434 58.51000977 116.23168945 C57.17451572 115.25478878 55.86229367 114.24582751 54.56518555 113.21850586 C52.78613071 111.6964466 52.78613071 111.6964466 50.67333984 111.88818359 Z " fill="#000000" transform="translate(302.32666015625,313.11181640625)"/>
<path d="M0 0 C0.85247314 0.47163574 1.70494629 0.94327148 2.58325195 1.42919922 C3.48390381 1.94240723 4.38455566 2.45561523 5.3125 2.984375 C6.73598755 3.77932373 6.73598755 3.77932373 8.18823242 4.59033203 C10.20039783 5.71635331 12.20969778 6.84750822 14.21630859 7.98339844 C17.32065991 9.73898964 20.43447477 11.47667069 23.55078125 13.2109375 C25.57596319 14.34295898 27.60071559 15.47574932 29.625 16.609375 C30.56021484 17.13176758 31.49542969 17.65416016 32.45898438 18.19238281 C46.95828925 26.38016425 46.95828925 26.38016425 51.3125 30.734375 C51.52774625 33.50408779 51.59279183 36.15003843 51.5625 38.921875 C51.55790771 39.80520508 51.55331543 40.68853516 51.54858398 41.59863281 C51.42298971 51.73600355 50.89055785 61.8608539 50.375 71.984375 C50.33161499 72.84171234 50.28822998 73.69904968 50.24353027 74.58236694 C50.11546233 77.07596898 49.98263904 79.56926347 49.84765625 82.0625 C49.80904984 82.80258804 49.77044342 83.54267609 49.73066711 84.30519104 C49.61050792 86.44995616 49.46306573 88.59155244 49.3125 90.734375 C49.27438202 91.51470093 49.23626404 92.29502686 49.19699097 93.09899902 C48.83755217 98.16053477 48.23459759 101.18618223 44.3125 104.734375 C41.65689581 106.44579132 38.89133571 107.85213864 36.05859375 109.24609375 C35.24366959 109.65922318 34.42874542 110.0723526 33.58912659 110.4980011 C30.98153062 111.8171094 28.36620478 113.11993777 25.75 114.421875 C23.20064596 115.70372064 20.65299989 116.98891799 18.1053772 118.27420044 C16.40560805 119.13142767 14.7052274 119.98744345 13.00424194 120.84225464 C6.96408325 123.88217568 0.95747785 126.98147306 -5.02734375 130.12890625 C-5.79583145 130.5324382 -6.56431915 130.93597015 -7.35609436 131.35173035 C-10.78239147 133.16105197 -14.16718251 135.00561666 -17.50366211 136.97607422 C-21.49654563 139.18117714 -24.31490555 139.88662492 -28.6875 138.734375 C-33.36901871 136.47526109 -37.69585892 133.7235245 -42.0625 130.921875 C-43.30878182 130.1393848 -44.55610496 129.35855077 -45.80444336 128.5793457 C-48.28420377 127.02927624 -50.75836349 125.47080883 -53.22900391 123.90625 C-56.26512297 121.99022104 -59.3315677 120.13110437 -62.41796875 118.296875 C-63.24699707 117.80292236 -64.07602539 117.30896973 -64.93017578 116.80004883 C-66.43249805 115.90754102 -67.93723915 115.01908711 -69.44482422 114.13549805 C-75.80379639 110.3075181 -78.0054427 106.54694356 -80.38671875 99.66015625 C-80.6266304 98.97688766 -80.86654205 98.29361908 -81.11372375 97.58964539 C-81.61745425 96.14612518 -82.11731198 94.7012484 -82.61352539 93.25512695 C-83.36837192 91.06609621 -84.14533585 88.88579296 -84.92382812 86.70507812 C-85.41283819 85.29474852 -85.90051117 83.88395445 -86.38671875 82.47265625 C-86.61791916 81.8316951 -86.84911957 81.19073395 -87.08732605 80.53034973 C-90.27682808 71.03095347 -88.46137999 63.81799475 -84.70703125 54.75 C-84.29716476 53.73137878 -83.88729828 52.71275757 -83.4650116 51.66326904 C-82.59908733 49.52226635 -81.72543243 47.38437575 -80.84448242 45.24951172 C-79.50168306 41.98846238 -78.18974312 38.7161936 -76.88085938 35.44140625 C-76.03306219 33.35603318 -75.18351186 31.2713718 -74.33203125 29.1875 C-73.74733818 27.72645844 -73.74733818 27.72645844 -73.15083313 26.23590088 C-70.63414258 20.19909827 -68.55347382 15.43558446 -62.24940491 12.66149902 C-59.1420308 11.50723989 -56.01399519 10.4856463 -52.8515625 9.4921875 C-51.69884857 9.1195578 -50.54613464 8.7469281 -49.35848999 8.36300659 C-46.9250014 7.58080722 -44.48902123 6.80632281 -42.05078125 6.0390625 C-38.32573829 4.8635526 -34.61207646 3.65630311 -30.8984375 2.4453125 C-28.52926148 1.68817504 -26.15948814 0.93290358 -23.7890625 0.1796875 C-22.68156647 -0.18164276 -21.57407043 -0.54297302 -20.43301392 -0.91525269 C-12.81402152 -3.28090248 -7.21210139 -4.04972709 0 0 Z M-18.01171875 13.484375 C-19.55375977 14.02578125 -19.55375977 14.02578125 -21.12695312 14.578125 C-22.19880859 14.9596875 -23.27066406 15.34125 -24.375 15.734375 C-25.45845703 16.1159375 -26.54191406 16.4975 -27.65820312 16.890625 C-30.3361334 17.83438897 -33.01245807 18.78246135 -35.6875 19.734375 C-32.35535829 20.8450889 -31.4714109 20.61949748 -28.1953125 19.703125 C-27.32519531 19.46980469 -26.45507812 19.23648438 -25.55859375 18.99609375 C-23.73511782 18.49029317 -21.91219444 17.98249611 -20.08984375 17.47265625 C-19.21714844 17.23933594 -18.34445312 17.00601563 -17.4453125 16.765625 C-16.6527002 16.54455078 -15.86008789 16.32347656 -15.04345703 16.09570312 C-10.32757155 15.37243779 -7.05826118 16.86310668 -3.1328125 19.359375 C-2.27751953 19.89731689 -1.42222656 20.43525879 -0.54101562 20.98950195 C0.35939453 21.56531006 1.25980469 22.14111816 2.1875 22.734375 C4.0700118 23.91584385 5.9528264 25.09683035 7.8359375 26.27734375 C10.45042097 27.92651445 13.06391954 29.5772282 15.67675781 31.22900391 C17.71568868 32.51214787 19.762736 33.78113658 21.8125 35.046875 C22.40401855 35.42521484 22.99553711 35.80355469 23.60498047 36.19335938 C26.9807919 38.26624329 29.3408478 39.17155313 33.3125 38.734375 C29.43401285 35.46379684 25.39879441 32.87445515 21.03515625 30.328125 C20.00170326 29.71825745 20.00170326 29.71825745 18.94737244 29.09606934 C16.7587176 27.8051689 14.56707423 26.51945891 12.375 25.234375 C10.18695337 23.94853849 7.99959312 22.66156304 5.81333923 21.37268066 C4.45768125 20.57378092 3.10094304 19.77671028 1.74293518 18.98181152 C-1.24345363 17.22472952 -4.11282949 15.43892365 -6.96313477 13.45898438 C-11.15033194 10.80835611 -13.59005329 11.92091318 -18.01171875 13.484375 Z M-18.4765625 24.046875 C-19.41757812 24.31757813 -20.35859375 24.58828125 -21.328125 24.8671875 C-22.31296875 25.15335938 -23.2978125 25.43953125 -24.3125 25.734375 C-25.30507813 26.02054688 -26.29765625 26.30671875 -27.3203125 26.6015625 C-29.77673251 27.3101452 -32.23241581 28.02118031 -34.6875 28.734375 C-34.6875 29.064375 -34.6875 29.394375 -34.6875 29.734375 C-33.29120837 29.61460281 -31.895499 29.48805376 -30.5 29.359375 C-29.60627686 29.2876709 -28.71255371 29.2159668 -27.79174805 29.14208984 C-24.71034633 28.83625375 -24.71034633 28.83625375 -21.97265625 27.8359375 C-15.16155179 25.84288948 -10.71116164 26.71420708 -4.61869812 29.97055054 C-1.1599527 32.00014093 2.19881845 34.15133655 5.52856445 36.38574219 C8.12650803 38.1103761 10.77406203 39.7258893 13.43945312 41.34375 C25.10946473 48.77610386 25.10946473 48.77610386 27.09490967 53.6583252 C27.85730384 57.77033998 27.34557946 61.6449391 26.62704468 65.73028564 C26.12163154 68.95047395 26.14001477 72.16743129 26.09375 75.421875 C26.00298781 77.85948808 25.90926303 80.29699275 25.8125 82.734375 C25.76480469 83.99765625 25.71710938 85.2609375 25.66796875 86.5625 C25.55215796 89.61990492 25.43365368 92.67717796 25.3125 95.734375 C27.28786745 95.38650792 27.28786745 95.38650792 29.3125 94.734375 C34.81759637 83.72418226 36.60761951 66.17506968 33.48419189 54.36450195 C26.87067077 39.51896086 2.54402921 28.83600378 -11.6875 22.734375 C-14.15106827 22.734375 -16.10663032 23.36159341 -18.4765625 24.046875 Z " fill="#000000" transform="translate(378.6875,192.265625)"/>
<path d="M0 0 C1.48558914 0.00666183 1.48558914 0.00666183 3.00119019 0.01345825 C4.68270676 0.01368484 4.68270676 0.01368484 6.39819336 0.01391602 C7.61280243 0.02423859 8.8274115 0.03456116 10.0788269 0.04519653 C11.31897552 0.04802643 12.55912415 0.05085632 13.83685303 0.05377197 C17.13476073 0.06308729 20.43247413 0.08106014 23.73031616 0.10317993 C27.0951601 0.12363429 30.46003247 0.1327728 33.82492065 0.14285278 C40.42786163 0.16494385 47.03067212 0.19844421 53.6335144 0.24050903 C53.9635144 0.90050903 54.2935144 1.56050903 54.6335144 2.24050903 C53.91525269 3.95095825 53.91525269 3.95095825 52.7038269 6.04519653 C52.24741821 6.84095093 51.79100952 7.63670532 51.32077026 8.45657349 C50.80522583 9.33402222 50.2896814 10.21147095 49.7585144 11.11550903 C49.22041138 12.04387573 48.68230835 12.97224243 48.12789917 13.92874146 C43.00227245 22.72037933 37.71035031 31.41203616 32.40744019 40.09744263 C26.91140159 49.10344372 21.50566894 58.16014405 16.1335144 67.24050903 C9.85356617 77.85211357 3.51058505 88.42150844 -2.90847778 98.94949341 C-8.63101026 108.33894333 -14.26530168 117.77823079 -19.8664856 127.24050903 C-26.08931681 137.74899639 -32.34906157 148.23363439 -38.6789856 158.67800903 C-39.02783813 159.2551062 -39.37669067 159.83220337 -39.7361145 160.42678833 C-50.72980814 178.60383158 -50.72980814 178.60383158 -53.3664856 181.24050903 C-55.14640483 181.33421528 -56.93005299 181.35795174 -58.71243286 181.35403442 C-59.85354019 181.35395889 -60.99464752 181.35388336 -62.17033386 181.35380554 C-63.411978 181.34864426 -64.65362213 181.34348297 -65.93289185 181.33816528 C-67.82853127 181.33604286 -67.82853127 181.33604286 -69.76246643 181.33387756 C-73.12773449 181.32921485 -76.49293549 181.32022383 -79.85818481 181.30917358 C-83.28998229 181.29895749 -86.72178668 181.29437952 -90.15359497 181.28933716 C-96.89124384 181.27828284 -103.62886084 181.26152613 -110.3664856 181.24050903 C-108.79105209 177.20236812 -106.93646779 173.44667948 -104.8039856 169.67800903 C-104.42032837 168.99802856 -104.03667114 168.3180481 -103.64138794 167.61746216 C-99.02539787 159.5241513 -94.14554073 151.58877524 -89.29202271 143.63674927 C-83.74655261 134.54568504 -78.28858292 125.40561327 -72.8664856 116.24050903 C-66.92648111 106.20323401 -60.93794123 96.1988278 -54.8664856 86.24050903 C-48.75756132 76.21731624 -42.72481163 66.15168344 -36.7414856 56.05300903 C-36.34327606 55.38095428 -35.94506653 54.70889954 -35.53479004 54.01647949 C-35.13917877 53.34879547 -34.7435675 52.68111145 -34.33596802 51.99319458 C-33.54538444 50.65895117 -32.75477591 49.32472253 -31.96414185 47.99050903 C-31.57725693 47.33762405 -31.19037201 46.68473907 -30.79176331 46.0120697 C-24.69466963 35.72814505 -18.54465351 25.47592262 -12.3664856 15.24050903 C-11.91112427 14.48576294 -11.45576294 13.73101685 -10.98660278 12.95339966 C-9.8463487 11.06749229 -8.70173303 9.18436266 -7.5539856 7.30300903 C-6.97004028 6.3452356 -6.38609497 5.38746216 -5.78445435 4.40066528 C-3.10276584 0.31533816 -3.10276584 0.31533816 0 0 Z " fill="#000000" transform="translate(1050.3664855957031,167.75949096679688)"/>
<path d="M0 0 C2.69518018 1.31542683 5.28825307 2.71846399 7.88037109 4.22729492 C9.41467773 5.11674805 9.41467773 5.11674805 10.97998047 6.02416992 C12.07761719 6.66483398 13.17525391 7.30549805 14.30615234 7.96557617 C15.46805582 8.64040997 16.63016906 9.31488273 17.79248047 9.98901367 C20.20589274 11.38914707 22.61839694 12.79082636 25.03027344 14.19360352 C30.55132305 17.40298886 36.08566835 20.58932681 41.61865234 23.77807617 C43.78538143 25.02796797 45.9520479 26.27796832 48.11865234 27.52807617 C49.19115234 28.14682617 50.26365234 28.76557617 51.36865234 29.40307617 C113.11865234 65.02807617 113.11865234 65.02807617 116.36987305 66.90380859 C118.53243818 68.15142357 120.69503573 69.39898234 122.85766602 70.64648438 C128.33735606 73.80751066 133.81644592 76.96956927 139.29443359 80.13354492 C140.9621582 81.09647461 140.9621582 81.09647461 142.66357422 82.07885742 C144.72629366 83.26988371 146.78881981 84.46124486 148.85107422 85.65307617 C155.73819218 89.62905004 162.63985885 93.5791545 169.54516602 97.5234375 C170.51597862 98.07806923 171.48679123 98.63270096 172.4870224 99.20413971 C174.86418071 100.56220902 177.24139199 101.9201855 179.61865234 103.27807617 C180.18005892 130.54601924 180.60287453 157.81309303 180.86214447 185.08565712 C180.98574843 197.7500726 181.15413858 210.41089182 181.42919922 223.07299805 C181.66892184 234.11365121 181.82335955 245.1517004 181.87677622 256.1948837 C181.90799492 262.04037532 181.98093633 267.87842054 182.15617371 273.72151566 C183.2139719 310.37777646 183.2139719 310.37777646 177.27334595 317.57227135 C171.6927648 322.5856804 165.58640017 325.24394087 158.45787048 327.36946297 C154.50571774 328.6342401 151.37163082 330.54335197 147.86865234 332.75073242 C144.71092155 334.5658514 141.55196589 336.37880382 138.39208984 338.19018555 C136.83361328 339.08640625 136.83361328 339.08640625 135.24365234 340.00073242 C133.77025391 340.83495728 133.77025391 340.83495728 132.26708984 341.68603516 C129.66913446 343.17471889 129.66913446 343.17471889 127.65771484 344.80957031 C121.14446616 349.84293921 113.43215527 348.82549542 105.61865234 348.59057617 C104.16165947 348.56545561 102.70462476 348.54264907 101.24755859 348.5222168 C97.70371037 348.46753255 94.16145303 348.38147149 90.61865234 348.27807617 C93.76498956 344.98013792 96.80298185 342.30050787 100.67724609 339.90307617 C101.64130371 339.30624023 102.60536133 338.7094043 103.59863281 338.09448242 C108.59045892 335.09212299 113.62399669 332.16882567 118.68115234 329.27807617 C120.37545173 328.30608661 122.06974742 327.33409055 123.76383972 326.36174011 C124.9306554 325.69215404 126.09765887 325.0228951 127.2648468 324.35395813 C131.49051571 321.93088474 135.70502054 319.48910296 139.91552734 317.03979492 C141.10289326 316.35025103 142.29031118 315.66079668 143.4777832 314.97143555 C145.73780091 313.65872396 147.99648287 312.34370934 150.25366211 311.02612305 C151.78978149 310.13570313 151.78978149 310.13570313 153.35693359 309.22729492 C154.25452393 308.70482178 155.15211426 308.18234863 156.0769043 307.64404297 C158.54262228 306.31893567 161.01433617 305.29551952 163.61865234 304.27807617 C164.04943372 279.74755361 164.34174187 255.21872196 164.47099304 230.68467522 C164.53421363 219.29161154 164.64205389 207.90229099 164.85644531 196.51098633 C165.04328773 186.57734672 165.14487807 176.64703604 165.14580917 166.71157658 C165.1492357 161.45292059 165.1941585 156.20228166 165.34136963 150.94552231 C166.89829933 130.09000437 166.89829933 130.09000437 160.25402451 111.16983604 C154.61652318 106.29641509 148.43845293 103.5269789 141.40328598 101.23234749 C137.73568037 99.97548885 134.77102663 98.2241495 131.50146484 96.15698242 C129.58254582 95.05090309 127.66328362 93.9454189 125.74365234 92.84057617 C123.55874696 91.58147816 121.37385142 90.32236307 119.18896484 89.06323242 C118.10389648 88.43819824 117.01882813 87.81316406 115.90087891 87.16918945 C110.47205292 84.04127469 105.04545953 80.90949169 99.61865234 77.77807617 C97.45199652 76.52805738 95.28532985 75.27805739 93.11865234 74.02807617 C80.11865234 66.52807617 67.11865234 59.02807617 54.11865234 51.52807617 C53.04470215 50.90852051 51.97075195 50.28896484 50.86425781 49.65063477 C48.71213104 48.4089609 46.56011162 47.16710095 44.40820312 45.92504883 C39.36834258 43.01640794 34.32747743 40.10955719 29.28265381 37.20953369 C27.50115656 36.18531952 25.72000912 35.16049966 23.93896484 34.13549805 C21.70788609 32.85174242 19.47615661 31.56911678 17.24365234 30.2878418 C16.23044922 29.70454102 15.21724609 29.12124023 14.17333984 28.52026367 C13.21782227 27.97208984 12.26230469 27.42391602 11.27783203 26.85913086 C8.23527633 25.05013428 5.31654656 23.09373189 2.43945312 21.0324707 C-0.18545056 19.9449201 -1.69050346 20.45703344 -4.38134766 21.27807617 C-6.92034894 22.4448551 -6.92034894 22.4448551 -9.49462891 23.94604492 C-10.48422607 24.50348389 -11.47382324 25.06092285 -12.4934082 25.63525391 C-13.54955322 26.23926025 -14.60569824 26.8432666 -15.69384766 27.46557617 C-16.78802002 28.08182861 -17.88219238 28.69808105 -19.00952148 29.33300781 C-24.77538476 32.59459377 -30.48718813 35.92559627 -36.15478516 39.35620117 C-37.23203857 40.00306885 -38.30929199 40.64993652 -39.41918945 41.31640625 C-41.48443583 42.56170131 -43.54101081 43.82151725 -45.58764648 45.09716797 C-46.52374756 45.66089111 -47.45984863 46.22461426 -48.42431641 46.80541992 C-49.64671021 47.55940063 -49.64671021 47.55940063 -50.89379883 48.32861328 C-54.12223056 49.5608609 -56.07393571 49.14751717 -59.38134766 48.27807617 C-62.37353516 46.64916992 -62.37353516 46.64916992 -65.25634766 44.71557617 C-66.22314453 44.07491211 -67.18994141 43.43424805 -68.18603516 42.77416992 C-68.91048828 42.28045898 -69.63494141 41.78674805 -70.38134766 41.27807617 C-68.91461101 37.46825079 -67.10923344 36.22929874 -63.56103516 34.31713867 C-62.56265625 33.77025391 -61.56427734 33.22336914 -60.53564453 32.65991211 C-58.91239258 31.79027832 -58.91239258 31.79027832 -57.25634766 30.90307617 C-54.97144497 29.65238565 -52.68761734 28.39972941 -50.40478516 27.14526367 C-49.52901825 26.6661554 -49.52901825 26.6661554 -48.63555908 26.17736816 C-42.65533984 22.89961521 -36.76423937 19.47652033 -30.88134766 16.02807617 C-29.89271729 15.4526709 -28.90408691 14.87726563 -27.88549805 14.28442383 C-23.31120755 11.61554773 -18.76699877 8.91304103 -14.27587891 6.10620117 C-13.10605469 5.3854541 -13.10605469 5.3854541 -11.91259766 4.65014648 C-10.47967166 3.76402807 -9.05565922 2.86325369 -7.64306641 1.94506836 C-2.99957176 -0.90934321 -2.99957176 -0.90934321 0 0 Z " fill="#000000" transform="translate(361.38134765625,73.721923828125)"/>
<path d="M0 0 C0.33 44.55 0.66 89.1 1 135 C13.375 141.93 13.375 141.93 26 149 C38.67774682 156.3785828 38.67774682 156.3785828 43.76953125 159.3671875 C50.48461274 163.29477549 57.24058722 167.14949706 64 171 C73.72142984 176.53953103 83.40895304 182.13375187 93.06689453 187.78344727 C100.32211736 192.02617279 107.59354142 196.2399661 114.875 200.4375 C115.94379395 201.05367187 117.01258789 201.66984375 118.11376953 202.3046875 C122.58072422 204.87906931 127.04836421 207.45225923 131.51660156 210.02441406 C133.87346291 211.38115258 136.23006924 212.73833221 138.58642578 214.09594727 C140.79006869 215.36546119 142.99413955 216.63423268 145.19873047 217.90209961 C146.20564941 218.4822583 147.21256836 219.06241699 148.25 219.66015625 C149.69826172 220.48797607 149.69826172 220.48797607 151.17578125 221.33251953 C153.0759409 222.45441532 154.94888936 223.62357956 156.79296875 224.83544922 C157.66566406 225.40408691 158.53835938 225.97272461 159.4375 226.55859375 C160.19933594 227.07607178 160.96117187 227.5935498 161.74609375 228.12670898 C164.03704849 229.2749081 164.03704849 229.2749081 166.62670898 228.2512207 C170.10925009 226.41519322 173.33241724 224.24047162 176.59765625 222.046875 C179 221 179 221 181.01171875 221.546875 C183.48063249 223.35126775 185.59425091 225.33016105 187.75 227.5 C188.94882812 228.69109375 188.94882812 228.69109375 190.171875 229.90625 C192 232 192 232 192 234 C188.3053848 236.65050343 184.30201168 238.83764025 180.375 241.125 C179.28058594 241.78371094 178.18617188 242.44242188 177.05859375 243.12109375 C175.46337891 244.05501953 175.46337891 244.05501953 173.8359375 245.0078125 C172.86188965 245.58160645 171.8878418 246.15540039 170.88427734 246.74658203 C167.56241247 248.19016204 165.58733126 248.44615205 162 248 C159.16113281 246.76928711 159.16113281 246.76928711 156.203125 245.02734375 C155.09308105 244.38273193 153.98303711 243.73812012 152.83935547 243.07397461 C151.64280167 242.36198776 150.4463526 241.64982488 149.25 240.9375 C147.9983064 240.20518193 146.74585201 239.4741628 145.49267578 238.74438477 C142.91426404 237.24075309 140.33988894 235.7305454 137.76855469 234.21484375 C133.21867668 231.53574546 128.64244249 228.90304489 124.06494141 226.27148438 C120.85322896 224.42498324 117.64492577 222.57268587 114.4375 220.71875 C110.10591493 218.2157051 105.77255397 215.71578227 101.4375 213.21875 C90.98287049 207.19560261 80.53951558 201.15477555 70.125 195.0625 C61.44737338 189.98724631 52.73378487 184.97769668 44 180 C35.18601767 174.97558389 26.38814382 169.92530113 17.625 164.8125 C16.77292969 164.31556641 15.92085937 163.81863281 15.04296875 163.30664062 C13.25931573 162.26374692 11.4940857 161.18881682 9.74688721 160.0859375 C6.81443858 158.33663031 3.8203927 157.12807123 0.63665771 155.9017334 C-5.70837977 153.20608554 -11.47691025 150.32815548 -16 145 C-19.6676372 135.85289213 -18.63783837 125.30079117 -18.23066664 115.61373496 C-18.09202753 111.75358881 -18.08013348 107.89296717 -18.05410767 104.03071594 C-17.98602971 96.73547566 -17.80598792 89.44758882 -17.58441889 82.15557176 C-17.33750523 73.84692104 -17.21731578 65.53789634 -17.10711932 57.2264837 C-16.87786122 40.14675203 -16.4915695 23.07415583 -16 6 C-14.72565604 5.35858837 -13.45082127 4.71815183 -12.17578125 4.078125 C-11.46591064 3.72137695 -10.75604004 3.36462891 -10.0246582 2.99707031 C-6.5529186 1.28736519 -3.89708833 0 0 0 Z " fill="#000000" transform="translate(195,243)"/>
<path d="M0 0 C2.94519473 2.12855008 5.41541001 4.65706646 7.89501953 7.30224609 C11.36079121 10.73498266 15.37031081 13.53712178 19.26171875 16.46484375 C20.77840413 17.62543503 22.29165203 18.79053772 23.80078125 19.9609375 C24.4448291 20.45650146 25.08887695 20.95206543 25.75244141 21.46264648 C32.00934205 26.65835473 33.56726373 31.75570205 35.94921875 39.40234375 C36.32111328 40.52640625 36.69300781 41.65046875 37.07617188 42.80859375 C37.5953418 44.44441406 37.5953418 44.44441406 38.125 46.11328125 C38.43993408 47.10376465 38.75486816 48.09424805 39.0793457 49.11474609 C40.0557524 54.21703775 38.63471516 58.46106726 36.7890625 63.20703125 C36.43134766 64.13515625 36.07363281 65.06328125 35.70507812 66.01953125 C35.33189453 66.97085938 34.95871094 67.9221875 34.57421875 68.90234375 C34.19716797 69.876875 33.82011719 70.85140625 33.43164062 71.85546875 C32.50507499 74.24811924 31.57331084 76.63860429 30.63671875 79.02734375 C26.040414 76.54545225 22.28030238 74.06447877 18.44921875 70.46484375 C16.85444687 68.97555285 15.25092815 67.49554426 13.63671875 66.02734375 C13.12923096 65.49842529 12.62174316 64.96950684 12.09887695 64.42456055 C8.20880332 62.21703537 4.30910687 62.56644278 -0.08984375 62.55078125 C-1.03387054 62.53520172 -1.97789734 62.51962219 -2.95053101 62.50357056 C-5.9631062 62.45607325 -8.97544988 62.42829158 -11.98828125 62.40234375 C-15.00809092 62.36586798 -18.02776895 62.32527365 -21.04745483 62.2796936 C-22.92597766 62.25244419 -24.80459706 62.23110283 -26.68325806 62.21615601 C-27.95500381 62.20076279 -27.95500381 62.20076279 -29.25244141 62.18505859 C-29.99982574 62.17856293 -30.74721008 62.17206726 -31.51724243 62.16537476 C-33.36328125 62.02734375 -33.36328125 62.02734375 -35.36328125 61.02734375 C-35.85030699 59.18115063 -36.29949661 57.32492066 -36.73046875 55.46484375 C-39.27957199 47.48915094 -44.40256837 44.86440231 -51.48828125 41.02734375 C-53.68321436 39.78584268 -55.87356605 38.53619649 -58.05859375 37.27734375 C-59.02812988 36.74625 -59.99766602 36.21515625 -60.99658203 35.66796875 C-63.55439141 33.89486384 -64.6100416 33.0458105 -65.36328125 30.02734375 C-64.14348737 25.79511314 -61.97292575 21.95037064 -59.98828125 18.02734375 C-59.47394531 16.93421875 -58.95960938 15.84109375 -58.4296875 14.71484375 C-53.57646396 4.98454791 -53.57646396 4.98454791 -47.65234375 2.75805664 C-46.89695312 2.51692139 -46.1415625 2.27578613 -45.36328125 2.02734375 C-44.04070312 1.49451782 -44.04070312 1.49451782 -42.69140625 0.95092773 C-30.95219828 -3.51681916 -11.46210164 -6.44403869 0 0 Z M-16.36328125 33.02734375 C-15.92752081 38.69222945 -14.1669615 43.77421332 -10.36328125 48.02734375 C-4.92587764 50.73363139 0.73024649 51.78332199 6.63671875 50.02734375 C5.99734375 49.40859375 5.35796875 48.78984375 4.69921875 48.15234375 C2.86837689 46.34750816 1.18336374 44.49648504 -0.48828125 42.5390625 C-1.63296875 41.20294922 -1.63296875 41.20294922 -2.80078125 39.83984375 C-3.52136719 38.98003906 -4.24195313 38.12023437 -4.984375 37.234375 C-8.45141404 34.01782811 -11.67518273 33.02734375 -16.36328125 33.02734375 Z M-21.36328125 39.02734375 C-20.07417822 43.12617998 -20.07417822 43.12617998 -18.30078125 47.02734375 C-17.07807408 49.63578571 -16.75055205 52.18735787 -16.36328125 55.02734375 C-14.71328125 55.02734375 -13.06328125 55.02734375 -11.36328125 55.02734375 C-11.36328125 54.36734375 -11.36328125 53.70734375 -11.36328125 53.02734375 C-12.35328125 53.02734375 -13.34328125 53.02734375 -14.36328125 53.02734375 C-14.47542969 52.30160156 -14.58757812 51.57585937 -14.703125 50.828125 C-15.39289512 47.90170382 -16.41838939 45.80446566 -17.92578125 43.21484375 C-18.60833984 42.02955078 -18.60833984 42.02955078 -19.3046875 40.8203125 C-19.65402344 40.22863281 -20.00335938 39.63695312 -20.36328125 39.02734375 C-20.69328125 39.02734375 -21.02328125 39.02734375 -21.36328125 39.02734375 Z " fill="#000000" transform="translate(472.36328125,167.97265625)"/>
<path d="M0 0 C5.74570162 0.18940247 10.23385564 3.96111425 14.86328125 7.03125 C17.01483408 8.41789465 19.16720614 9.80326882 21.3203125 11.1875 C21.87333038 11.54610107 22.42634827 11.90470215 22.99612427 12.27416992 C28.94887329 16.13326922 34.99755976 19.83223607 41.05078125 23.53125 C50.40094558 29.26937211 59.71570184 35.06137834 69.01171875 40.88671875 C76.33579736 45.47147662 83.68735374 50.01000056 91.05078125 54.53125 C99.40691992 59.66203824 107.74176385 64.82449419 116.05078125 70.03125 C126.59678402 76.63895127 137.18945011 83.16869641 147.79296875 89.68359375 C156.04350281 94.75336636 164.27529431 99.85327498 172.50634766 104.95458984 C175.97490483 107.10388386 179.44445225 109.25157641 182.9140625 111.39916992 C184.67064225 112.48646026 186.42715277 113.57386245 188.18359375 114.66137695 C192.51984587 117.34616455 196.85680715 120.02979234 201.1953125 122.7109375 C211.38719528 129.01146191 221.55911573 135.34262076 231.7109375 141.70751953 C237.20457568 145.14637357 242.71401601 148.5570714 248.24609375 151.93359375 C248.84257217 152.2982222 249.4390506 152.66285065 250.05360413 153.03852844 C252.95351065 154.81116698 255.85570001 156.57964381 258.76245117 158.34106445 C260.32249878 159.29372192 260.32249878 159.29372192 261.9140625 160.265625 C262.83485596 160.82475586 263.75564941 161.38388672 264.7043457 161.95996094 C268.41411117 164.44420301 269.84362392 165.49546335 270.73828125 169.96875 C272.06138092 185.11401852 272.06138092 185.11401852 269.73046875 188.3828125 C268.05078125 189.53125 268.05078125 189.53125 264.92578125 189.59375 C259.94339895 188.61639569 255.80129282 185.87021475 252.05078125 182.53125 C250.55078125 179.46875 250.55078125 179.46875 250.05078125 176.53125 C249.72071561 174.86393312 249.38789546 173.19715603 249.05078125 171.53125 C248.36298804 171.37793685 247.67519484 171.2246237 246.96655941 171.0666647 C230.07323401 167.30101204 213.18001565 163.53487952 196.28691006 159.76824093 C188.11686113 157.94658503 179.94677869 156.12507973 171.77661133 154.30395508 C164.63870468 152.7129202 157.50086703 151.12157619 150.36310536 149.52989107 C146.59899995 148.69052491 142.83486476 147.85129298 139.07064629 147.01243401 C131.43020555 145.30965243 123.7903596 143.60427027 116.15161258 141.89390546 C111.98733618 140.96218346 107.82163046 140.03714615 103.65491933 139.1163761 C100.85393529 138.49656545 98.05382663 137.87286078 95.25386822 137.24843514 C93.33011281 136.82073535 91.40528824 136.39785314 89.48042202 135.97518063 C67.14980756 130.98279383 41.00653494 123.71919597 24.05078125 107.53125 C23.24382812 106.85835938 22.436875 106.18546875 21.60546875 105.4921875 C11.3294114 96.40564161 10.10134158 82.081842 7.30078125 69.21875 C7.13425049 68.46099274 6.96771973 67.70323547 6.79614258 66.92251587 C4.12474967 54.76102174 1.56593761 42.57564004 -0.91027832 30.37295532 C-1.26725812 28.61488034 -1.62620075 26.85720268 -1.98718262 25.09994507 C-2.4921599 22.63442792 -2.98772445 20.16720615 -3.48046875 17.69921875 C-3.63006042 16.97464478 -3.7796521 16.2500708 -3.93377686 15.50354004 C-4.79447524 11.12215396 -5.25982651 6.99343827 -4.94921875 2.53125 C-2.94921875 0.53125 -2.94921875 0.53125 0 0 Z M-0.94921875 4.53125 C-0.36769108 11.97220903 0.84248341 19.17021928 2.34375 26.4765625 C2.57226151 27.60407928 2.80077301 28.73159607 3.03620911 29.89328003 C3.5204595 32.27554597 4.00721473 34.65730397 4.49633789 37.03857422 C5.2258894 40.595828 5.94458412 44.15514733 6.66210938 47.71484375 C8.99047719 59.17676575 11.44959414 70.59859976 14.2265625 81.9609375 C14.46505417 82.95610382 14.70354584 83.95127014 14.94926453 84.97659302 C17.80613864 96.38280343 24.72209626 104.18877522 34.32421875 110.77734375 C37.8426831 112.84252935 41.38603938 114.74287127 45.05078125 116.53125 C45.98083984 116.98709473 45.98083984 116.98709473 46.9296875 117.45214844 C64.34607807 125.82953959 82.90761601 130.4328237 101.69140625 134.609375 C103.77206713 135.07826963 105.85256816 135.54787404 107.93292236 136.01812744 C112.3486952 137.01472749 116.76555896 138.00628022 121.18334961 138.99389648 C128.12397047 140.54595156 135.0611389 142.11308853 141.99804688 143.68164062 C152.67048093 146.09305592 163.34631319 148.48892878 174.02490997 150.87290192 C180.09885904 152.22901042 186.17191584 153.58887662 192.24316406 154.95703125 C198.26191404 156.31329151 204.2825443 157.66086966 210.30466461 159.00208282 C212.56841727 159.50778056 214.83148728 160.01654467 217.09383392 160.52849579 C220.20886638 161.23278429 223.32618572 161.9258782 226.44433594 162.61621094 C227.36442444 162.82694244 228.28451294 163.03767395 229.23248291 163.25479126 C230.07734253 163.43945953 230.92220215 163.62412781 231.79266357 163.81439209 C232.52306225 163.97801113 233.25346092 164.14163017 234.00599289 164.31020737 C236.27155456 164.5551157 237.89012583 164.21015585 240.05078125 163.53125 C239.50716949 163.34047882 238.96355774 163.14970764 238.4034729 162.95315552 C232.60970122 160.91906201 226.81825125 158.87844945 221.02749634 156.83578491 C217.6694423 155.6540192 214.308845 154.47970418 210.94799805 153.3059082 C192.14821224 146.71094138 192.14821224 146.71094138 184.65625 143.31640625 C164.44822872 134.18235433 142.93491514 133.75837084 121.05078125 132.53125 C122.24622559 132.54696045 122.24622559 132.54696045 123.46582031 132.56298828 C127.07744187 132.60456772 130.68901304 132.63058261 134.30078125 132.65625 C136.18216797 132.68138672 136.18216797 132.68138672 138.1015625 132.70703125 C139.90947266 132.71669922 139.90947266 132.71669922 141.75390625 132.7265625 C142.86411133 132.73703613 143.97431641 132.74750977 145.11816406 132.75830078 C147.99029067 132.53593334 149.6230186 132.02406575 152.05078125 130.53125 C148.54039217 128.82067579 145.02067868 127.13112668 141.49169922 125.45922852 C139.71334401 124.61165266 137.94250359 123.74836652 136.171875 122.88476562 C129.40276909 119.69143035 123.58530688 117.55601337 116.05078125 117.53125 C117.04078125 116.87125 118.03078125 116.21125 119.05078125 115.53125 C114.94709952 113.44199829 110.83933758 111.36106942 106.7277832 109.28735352 C105.33311086 108.58252949 103.93952827 107.87554439 102.54711914 107.16625977 C88.6390617 100.08497756 74.96227758 96.14885271 59.88720703 92.36254883 C57.55039741 91.77441601 55.21464017 91.18223161 52.87890625 90.58984375 C51.81159271 90.32414833 51.81159271 90.32414833 50.72271729 90.05308533 C47.0395449 89.11842328 43.53896868 88.04282612 40.05078125 86.53125 C40.98591553 86.75059204 40.98591553 86.75059204 41.93994141 86.97436523 C53.63523035 89.69076688 64.99794466 92.30147322 77.05078125 92.53125 C73.43476284 87.40855725 69.51838825 82.78428701 65.23828125 78.21875 C60.80033926 73.47542319 56.55879691 68.64437449 52.4921875 63.57421875 C50.5592044 61.16494861 48.60775925 58.77574213 46.640625 56.39453125 C46.04757568 55.67370361 45.45452637 54.95287598 44.84350586 54.21020508 C43.66621679 52.77927699 42.48612489 51.3506494 41.30297852 49.92456055 C40.76600342 49.26883057 40.22902832 48.61310059 39.67578125 47.9375 C39.19367188 47.35291016 38.7115625 46.76832031 38.21484375 46.16601562 C37.05078125 44.53125 37.05078125 44.53125 36.05078125 41.53125 C36.5605249 42.18319336 37.07026855 42.83513672 37.59545898 43.50683594 C43.19380918 50.52262358 49.16570264 56.92875909 55.54418945 63.23046875 C57.12060803 64.78849128 58.68873643 66.35450807 60.25585938 67.921875 C65.16968726 72.81815453 70.13701891 77.60685702 75.41186523 82.11767578 C77.5343822 83.94835852 79.52996412 85.90210668 81.55078125 87.84375 C88.96617562 94.56611686 97.97627487 100.27321239 107.05078125 104.53125 C106.38637667 99.46133194 104.22252943 95.13053098 102.11328125 90.53125 C101.39503392 88.94827914 100.67756412 87.36495523 99.9609375 85.78125 C99.46037842 84.67716797 99.46037842 84.67716797 98.94970703 83.55078125 C97.91895151 81.23508064 96.96163745 78.8966148 96.05078125 76.53125 C97.10169474 78.29066869 98.15143916 80.05079381 99.19604492 81.81396484 C100.11100119 83.3536768 101.03323822 84.88908211 101.9621582 86.42041016 C104.15201592 90.07757415 106.1791907 93.61965605 107.6875 97.61328125 C111.9602915 108.40207978 118.81677715 111.79583558 129.27807617 116.38427734 C131.85746771 117.46636762 134.44392286 118.5174361 137.05078125 119.53125 C137.38078125 118.87125 137.71078125 118.21125 138.05078125 117.53125 C137.14978935 115.31607367 136.19074857 113.23034367 135.12109375 111.09765625 C134.6564119 110.14704567 134.6564119 110.14704567 134.18234253 109.17723083 C133.18758013 107.14565731 132.18211443 105.11961338 131.17578125 103.09375 C130.17868783 101.07049129 129.18382728 99.04616133 128.19064331 97.02098083 C127.57125169 95.75975413 126.94920997 94.49982469 126.32424927 93.24134827 C125.06425341 90.69008608 123.95228195 88.23575209 123.05078125 85.53125 C123.40269531 86.15467285 123.75460938 86.7780957 124.1171875 87.42041016 C125.76134622 90.33256727 127.406063 93.24440886 129.05078125 96.15625 C129.60378906 97.1359375 130.15679687 98.115625 130.7265625 99.125 C131.88258251 101.17128829 133.05020868 103.21105368 134.22802734 105.24487305 C135.51152163 107.5589792 136.66423133 109.80925899 137.76806641 112.20239258 C141.62247974 120.24416585 145.75307125 124.55214373 154.35205078 127.62182617 C155.70964428 128.07175738 157.06756544 128.52070088 158.42578125 128.96875 C159.8698848 129.48565817 161.31239614 130.00703261 162.75341797 130.5324707 C165.85592846 131.65408553 168.96703188 132.74497776 172.08789062 133.81445312 C177.24116929 135.58510882 182.35702599 137.45196639 187.47265625 139.328125 C203.88698956 145.32528102 220.38084425 151.09074493 236.98828125 156.53125 C237.64548157 156.74929291 238.30268188 156.96733582 238.97979736 157.19198608 C240.8010702 157.79391748 242.62698517 158.38174959 244.453125 158.96875 C245.97667603 159.46181641 245.97667603 159.46181641 247.53100586 159.96484375 C250.15664356 160.78295521 250.15664356 160.78295521 253.05078125 159.53125 C252.54442139 159.23057617 252.03806152 158.92990234 251.51635742 158.62011719 C241.46738722 152.64426031 231.48304875 146.5873684 221.61743164 140.31323242 C211.54663641 133.92003822 201.3636786 127.70867021 191.19873047 121.46679688 C183.98175391 117.02936938 176.78310561 112.56228698 169.58203125 108.09912109 C167.03091225 106.51894303 164.47853835 104.94081142 161.92578125 103.36328125 C152.7220173 97.67415577 143.53378506 91.96134971 134.36328125 86.21875 C123.71188449 79.55061995 113.01557091 72.95731157 102.30859375 66.37890625 C94.05805969 61.30913364 85.82626819 56.20922502 77.59521484 51.10791016 C73.24801482 48.41416445 68.89930948 45.72285083 64.55078125 43.03125 C62.80077432 41.94792787 61.05077431 40.86459454 59.30078125 39.78125 C58.43453125 39.245 57.56828125 38.70875 56.67578125 38.15625 C48.80078125 33.28125 48.80078125 33.28125 46.1730957 31.65454102 C44.43210308 30.57681455 42.69105536 29.49917708 40.94995117 28.42163086 C36.43667053 25.62825895 31.92450592 22.83310746 27.4140625 20.03515625 C26.48464844 19.45894531 25.55523437 18.88273437 24.59765625 18.2890625 C22.84078419 17.19980182 21.08424531 16.11000349 19.328125 15.01953125 C17.71874138 14.02202192 16.10761737 13.02731419 14.49462891 12.03564453 C12.76564188 10.97130706 11.04184304 9.89851992 9.32177734 8.81982422 C8.43184082 8.26955566 7.5419043 7.71928711 6.625 7.15234375 C5.82022217 6.65017334 5.01544434 6.14800293 4.1862793 5.63061523 C2.00654213 4.30239342 2.00654213 4.30239342 -0.94921875 4.53125 Z " fill="#000000" transform="translate(93.94921875,-0.53125)"/>
<path d="M0 0 C0.80297284 -0.01707327 1.60594568 -0.03414654 2.43325102 -0.05173719 C3.15497486 -0.07093176 3.8766987 -0.09012633 4.62029296 -0.10990256 C6.52148974 0.08317053 6.52148974 0.08317053 9.14648974 1.95817053 C10.32211474 3.50504553 10.32211474 3.50504553 11.52148974 5.08317053 C12.13379443 5.8578971 12.74609911 6.63262366 13.37695849 7.43082678 C19.20688016 15.14587282 19.20688016 15.14587282 18.52148974 21.08317053 C15.64824299 23.95641728 12.57483999 23.73494874 8.70898974 24.02067053 C7.99678271 24.10123694 7.28457568 24.18180335 6.55078661 24.26481116 C2.46510915 24.5709535 0.84236517 24.34673128 -2.36522901 21.71207678 C-3.41130323 20.41076819 -3.41130323 20.41076819 -4.47851026 19.08317053 C-5.13851026 18.42317053 -5.79851026 17.76317053 -6.47851026 17.08317053 C-10.02383439 17.48283291 -13.18852771 18.6292416 -16.5009712 19.9147135 C-17.48555311 20.29451865 -18.47013502 20.67432379 -19.48455274 21.06563818 C-20.54990247 21.48134573 -21.6152522 21.89705328 -22.71288526 22.32535803 C-23.83737073 22.7604418 -24.96185621 23.19552557 -26.120417 23.6437937 C-29.18512005 24.83047024 -32.24840269 26.02072696 -35.31109083 27.21259177 C-38.53893417 28.46772218 -41.76857863 29.71820086 -44.99804151 30.96915686 C-50.28611783 33.01818512 -55.57316146 35.06985506 -60.85936964 37.12369788 C-67.71523734 39.78738174 -74.5730454 42.44603421 -81.43163526 45.10270178 C-83.46102232 45.88905603 -85.49040068 46.6754327 -87.51977003 47.46183264 C-90.49866469 48.61615166 -93.4776157 49.77032411 -96.45675123 50.92402136 C-106.76950034 54.91795179 -117.0782647 58.92126217 -127.37160718 62.96499121 C-131.78236724 64.696883 -136.19540686 66.42292305 -140.60863721 68.14850867 C-142.68562592 68.96247393 -144.76152674 69.77922218 -146.83617628 70.59913123 C-175.13382612 81.78086193 -206.68308629 93.68797857 -237.47851026 87.08317053 C-238.21069776 86.94524085 -238.94288526 86.80731116 -239.69726026 86.66520178 C-245.66633717 85.03838369 -249.83761423 80.45133267 -254.16185987 76.26188147 C-257.07481828 73.45645486 -260.04862388 70.7258626 -263.04101026 68.00504553 C-271.8803874 59.88708244 -280.44447791 51.48428808 -288.97631299 43.04532874 C-290.86948194 41.17909011 -292.76701862 39.31947968 -294.67553174 37.46915686 C-297.45616347 34.76723344 -300.21347891 32.04336175 -302.96679151 29.31363928 C-303.82283475 28.49058798 -304.678878 27.66753668 -305.56086195 26.81954443 C-311.99121091 20.36691334 -311.99121091 20.36691334 -312.19799268 16.13126624 C-311.47851026 13.08317053 -311.47851026 13.08317053 -308.47851026 11.08317053 C-305.95270479 10.75694811 -305.95270479 10.75694811 -302.85529554 10.64718115 C-301.67085418 10.60061314 -300.48641283 10.55404513 -299.26607931 10.50606596 C-297.29419039 10.4430816 -297.29419039 10.4430816 -295.28246534 10.37882483 C-293.86615486 10.3268286 -292.44987462 10.27400329 -291.0336231 10.22042525 C-287.09226018 10.07378354 -283.15056196 9.93909227 -279.20871556 9.80617607 C-274.90816853 9.65910719 -270.60801971 9.50114354 -266.30781019 9.34456885 C-258.60778267 9.06576241 -250.90752201 8.79425762 -243.20708692 8.52695715 C-230.93945332 8.10098955 -218.67229571 7.66217923 -206.40516865 7.22189796 C-178.87802518 6.23444444 -151.35018879 5.26715674 -123.82218504 4.30403185 C-113.31981734 3.93643739 -102.81752779 3.56664538 -92.31525332 3.1963982 C-82.04105384 2.8342581 -71.766812 2.47333846 -61.49253434 2.11342317 C-55.41855238 1.90064027 -49.34458647 1.68742494 -43.27066076 1.47304213 C-37.62353098 1.27378085 -31.97634968 1.07604917 -26.32912481 0.87950194 C-24.26713387 0.80748401 -22.2051615 0.73493225 -20.14320982 0.66179907 C-17.32608567 0.56196797 -14.50889999 0.46409145 -11.6916908 0.36669409 C-10.48011785 0.32307225 -10.48011785 0.32307225 -9.24406868 0.27856916 C-6.16298731 0.17365105 -3.08111738 0.10339202 0 0 Z M-62.79979932 5.89347327 C-65.31289339 5.98090081 -67.82600117 6.06793496 -70.33912122 6.15461218 C-76.38164929 6.36405722 -82.42401737 6.57763879 -88.46632561 6.7933008 C-95.52842869 7.04518437 -102.59069841 7.29224133 -109.65297553 7.53918863 C-122.25983079 7.98018329 -134.86652699 8.42556865 -147.47313917 8.87345374 C-159.66475129 9.30659195 -171.85647617 9.7363632 -184.04833448 10.16251624 C-199.52408704 10.70346169 -214.9997345 11.24732014 -230.47529919 11.79361365 C-235.38271641 11.96676446 -240.29016878 12.13889563 -245.1976341 12.31067717 C-251.80699909 12.54209791 -258.41625967 12.77635653 -265.02545965 13.01244986 C-267.44163122 13.09837071 -269.85783305 13.18344581 -272.27406728 13.26758635 C-284.02651791 13.67738024 -295.75792181 14.09003992 -307.47851026 15.08317053 C-306.64296485 19.1497783 -305.0476906 20.88350282 -302.08568799 23.83243811 C-301.63022092 24.28994956 -301.17475385 24.747461 -300.70548475 25.21883643 C-299.19817832 26.72914949 -297.6803988 28.22844193 -296.16210401 29.72770178 C-295.10594278 30.78080228 -294.05037404 31.8344973 -292.99537122 32.8887583 C-290.77967653 35.09984904 -288.55916518 37.30594132 -286.33471143 39.50821936 C-283.50269269 42.31212924 -280.67925737 45.12447855 -277.85901773 47.94023097 C-275.1506791 50.6433719 -272.43769628 53.34183361 -269.72460401 56.04020178 C-269.2159373 56.54698777 -268.7072706 57.05377375 -268.18318975 57.57591689 C-262.94230128 62.79181482 -257.67294914 67.93117927 -252.04599988 72.73415625 C-250.15740553 74.35951996 -248.39359028 76.10083503 -246.60351026 77.83317053 C-237.82099537 85.54380369 -224.57446245 85.68901625 -213.47851026 85.08317053 C-178.83898532 81.77350902 -145.98535477 66.15047976 -114.00365674 53.41764319 C-100.61900437 48.09266984 -87.19914611 42.87413121 -73.72851026 37.77067053 C-72.45315412 37.28746848 -72.45315412 37.28746848 -71.15203321 36.79450476 C-70.30892591 36.47508917 -69.46581861 36.15567358 -68.5971626 35.82657874 C-66.9091428 35.18693209 -65.22115432 34.54720281 -63.53319776 33.90738928 C-62.70782514 33.59455496 -61.88245252 33.28172064 -61.03206861 32.9594065 C-51.6190418 29.38604157 -42.23474969 25.73902184 -32.85351026 22.08317053 C-32.06254957 21.77495368 -31.27158887 21.46673682 -30.45665967 21.14918005 C-26.12979992 19.46258011 -21.80376351 17.77388585 -17.47851026 16.08317053 C-21.18306816 14.75540995 -23.75283 15.4178178 -27.50951612 16.39078772 C-28.72856138 16.70151221 -29.94760664 17.0122367 -31.20359266 17.33237708 C-32.53355117 17.68145491 -33.86347062 18.03068162 -35.19335401 18.38004553 C-36.56874533 18.73388417 -37.944365 19.08683622 -39.32020032 19.43894446 C-42.94890941 20.36992836 -46.57465521 21.31196898 -50.19982374 22.25663245 C-54.56039301 23.39102896 -58.924011 24.51362201 -63.28748643 25.63677847 C-66.69359363 26.51357865 -70.09912933 27.39238112 -73.50290906 28.27817786 C-80.5304718 30.09974037 -87.55957156 31.81074743 -94.66189039 33.3177439 C-99.37195551 34.59772113 -103.29508818 36.96481723 -107.41601026 39.52067053 C-109.20892529 40.58935469 -111.00324832 41.65567946 -112.79882276 42.71988928 C-113.71824659 43.26951331 -114.63767042 43.81913733 -115.58495557 44.38541663 C-120.58796144 47.32086236 -125.68973243 50.07321751 -130.79101026 52.83317053 C-131.7583711 53.35838294 -132.72573194 53.88359534 -133.72240674 54.42472327 C-135.97336797 55.64620528 -138.22535477 56.86574237 -140.47851026 58.08317053 C-135.91632112 55.03559557 -131.34981374 51.99506424 -126.76757276 48.97770178 C-125.99800245 48.46916663 -125.22843214 47.96063147 -124.43554151 47.43668616 C-122.85914784 46.39499888 -121.28097161 45.35600493 -119.70116651 44.31949866 C-118.93933057 43.81483069 -118.17749464 43.31016272 -117.39257276 42.79020178 C-116.71146436 42.34136633 -116.03035596 41.89253088 -115.32860792 41.43009436 C-113.51995701 40.11334495 -112.01129262 38.70806292 -110.47851026 37.08317053 C-114.4906937 37.3113143 -118.47926911 37.69108807 -122.47851026 38.08317053 C-123.13738233 38.12683753 -123.7962544 38.17050452 -124.47509229 38.21549475 C-139.1803837 39.24580179 -149.55971286 45.76694749 -161.47851026 54.08317053 C-160.93581495 53.68340003 -160.39311964 53.28362952 -159.83397901 52.87174475 C-158.76083448 52.07534583 -158.76083448 52.07534583 -157.66601026 51.26285803 C-156.95831495 50.73933753 -156.25061964 50.21581702 -155.52147901 49.67643225 C-152.93442793 47.65885393 -150.72478268 45.46983498 -148.47851026 43.08317053 C-151.44602429 43.28894705 -154.40915841 43.51653265 -157.37304151 43.77067053 C-160.16469851 44.00347781 -162.94020031 44.13244291 -165.74022901 44.20817053 C-179.61969057 44.82414493 -191.58188223 49.41049517 -204.37304151 54.37223303 C-212.28336974 57.44059612 -220.28392251 59.90836059 -228.47851026 62.08317053 C-227.58096021 61.7213468 -227.58096021 61.7213468 -226.66527784 61.3522135 C-215.48497582 56.83628627 -204.34832525 52.31298718 -193.47851026 47.08317053 C-193.80851026 46.42317053 -194.13851026 45.76317053 -194.47851026 45.08317053 C-196.69132652 44.31811645 -196.69132652 44.31811645 -199.43554151 43.74332678 C-201.05057569 43.36349646 -201.05057569 43.36349646 -202.69823682 42.9759928 C-203.88385206 42.70198645 -205.06946729 42.4279801 -206.29101026 42.14567053 C-218.41148785 39.24544776 -230.32338637 35.82859972 -242.22851026 32.14567053 C-243.44578306 31.76935996 -243.44578306 31.76935996 -244.68764722 31.38544714 C-249.28768332 29.96111133 -253.88442144 28.52656768 -258.47851026 27.08317053 C-257.75824659 27.26380042 -257.03798292 27.4444303 -256.29589307 27.63053381 C-225.1244968 35.36717858 -194.73064753 41.49014296 -162.47851026 40.08317053 C-166.82843348 35.15993107 -171.95513951 32.17367049 -177.60351026 28.89567053 C-179.39804826 27.84013503 -181.19233021 26.78416406 -182.98632276 25.72770178 C-184.17185743 25.03704627 -184.17185743 25.03704627 -185.38134229 24.33243811 C-187.11239655 23.30126179 -188.8020015 22.20084304 -190.47851026 21.08317053 C-188.90380841 21.86074745 -187.3295908 22.639315 -185.75731885 23.42179358 C-184.33776823 24.12527156 -182.91477082 24.82182838 -181.48876417 25.51212561 C-177.49723707 27.46928638 -173.69456479 29.53302519 -169.95897901 31.94645178 C-158.74766017 38.959958 -151.06836779 39.90949998 -138.11132276 37.18863928 C-136.56672371 36.8215279 -135.02244291 36.4530745 -133.47851026 36.08317053 C-131.8131397 35.74342095 -130.14678006 35.40838549 -128.47851026 35.08317053 C-133.09936273 31.0880585 -138.23891182 28.11507106 -143.47851026 25.02067053 C-144.36796339 24.49151038 -145.25741651 23.96235022 -146.17382276 23.41715491 C-147.83296329 22.43033774 -149.49301102 21.44504297 -151.15429151 20.46183264 C-153.60077096 19.01064887 -156.04044432 17.54843738 -158.47851026 16.08317053 C-154.87184187 17.78625635 -151.26867263 19.49662878 -147.66601026 21.20817053 C-146.66118604 21.68254553 -145.65636182 22.15692053 -144.62108839 22.64567053 C-138.61593615 25.50342787 -132.82688606 28.52382086 -127.13988721 31.9772135 C-121.27903039 34.41274065 -115.2889628 32.83383098 -109.30272901 31.50113928 C-108.51666273 31.33136069 -107.73059644 31.16158209 -106.92070997 30.98665869 C-104.33371244 30.42377903 -101.74974966 29.8483102 -99.16601026 29.27067053 C-98.27245832 29.07298071 -97.37890638 28.87529089 -96.45827711 28.67161047 C-67.52818476 22.25579558 -38.83580245 14.68429539 -10.47851026 6.08317053 C-10.47851026 5.75317053 -10.47851026 5.42317053 -10.47851026 5.08317053 C-27.93983748 4.96913839 -45.35058805 5.2628931 -62.79979932 5.89347327 Z " fill="#000000" transform="translate(311.47851026058197,177.91682946681976)"/>
<path d="M0 0 C-21.30114473 17.24831416 -37.19912049 21.43803485 -64 19 C-61.47911891 16.16822989 -58.65360217 14.5040955 -55.37109375 12.63671875 C-54.25283203 11.99669922 -53.13457031 11.35667969 -51.98242188 10.69726562 C-50.80090531 10.02712497 -49.61926403 9.35720416 -48.4375 8.6875 C-46.14405897 7.37973414 -43.85108364 6.07115122 -41.55859375 4.76171875 C-40.44895264 4.13168945 -39.33931152 3.50166016 -38.19604492 2.85253906 C-34.45723994 0.68539735 -30.80268531 -1.60093276 -27.17285156 -3.94555664 C-19.5227455 -7.65800699 -7.73952738 -2.21866452 0 0 Z " fill="#000000" transform="translate(249,156)"/>
</svg>
